<svg xmlns="http://www.w3.org/2000/svg" viewBox="0 0 64 64" role="img" aria-label="camera">
  <rect width="64" height="64" rx="14" fill="#0f0f0f"/>
  <path fill="#f8f6f2" d="M18 23.5c0-2.5 2-4.5 4.5-4.5h5.2l2.1-3.2c.7-1 1.8-1.6 3-1.6h6.4c1.2 0 2.3.6 3 1.6l2.1 3.2h5.2c2.5 0 4.5 2 4.5 4.5v21c0 2.5-2 4.5-4.5 4.5h-27c-2.5 0-4.5-2-4.5-4.5v-21Z"/>
  <circle cx="36" cy="34" r="10" fill="#0f0f0f"/>
  <circle cx="36" cy="34" r="5.5" fill="#f8f6f2"/>
  <circle cx="49" cy="25" r="2.4" fill="#0f0f0f"/>
</svg>
